<?xml version="1.0" encoding="utf-8"?>
<!-- Generator: Adobe Illustrator 16.0.4, SVG Export Plug-In . SVG Version: 6.00 Build 0)  -->
<!DOCTYPE svg PUBLIC "-//W3C//DTD SVG 1.1//EN" "http://www.w3.org/Graphics/SVG/1.1/DTD/svg11.dtd">
<svg version="1.1" id="Ebene_1" xmlns="http://www.w3.org/2000/svg" xmlns:xlink="http://www.w3.org/1999/xlink" x="0px" y="0px"
	 width="72px" height="72.276px" viewBox="0 0 72 72.276" enable-background="new 0 0 72 72.276" xml:space="preserve">
<g>
	<defs>
		<rect id="SVGID_9_" x="1.862" y="0.822" width="68.276" height="70.631"/>
	</defs>
	<clipPath id="SVGID_2_">
		<use xlink:href="#SVGID_9_"  overflow="visible"/>
	</clipPath>
	<g clip-path="url(#SVGID_2_)">
		<defs>
			<rect id="SVGID_11_" x="1.862" y="0.822" width="68.276" height="70.631"/>
		</defs>
		<clipPath id="SVGID_4_">
			<use xlink:href="#SVGID_11_"  overflow="visible"/>
		</clipPath>
		<g opacity="0.8" clip-path="url(#SVGID_4_)">
			<g>
				<defs>
					<rect id="SVGID_13_" x="-11.479" y="-10.949" width="94.959" height="83.188"/>
				</defs>
				<clipPath id="SVGID_6_">
					<use xlink:href="#SVGID_13_"  overflow="visible"/>
				</clipPath>
				<path clip-path="url(#SVGID_6_)" fill="#008DCA" d="M36,71.453c18.854,0,34.138-15.811,34.138-35.314
					C70.138,16.633,54.854,0.822,36,0.822S1.862,16.633,1.862,36.139C1.862,55.643,17.146,71.453,36,71.453"/>
				<path clip-path="url(#SVGID_6_)" fill="#FFFFFF" d="M21.183,32.545c-0.667,1.123-1.011,2.158-1.033,3.107
					c-0.021,0.949,0.261,1.879,0.845,2.785l13.957,23.695c0.209,0.389,0.46,0.723,0.751,1.004c0.293,0.281,0.679,0.496,1.158,0.648
					c0.48,0.15,1.117,0.27,1.909,0.355c0.793,0.086,1.794,0.129,3.004,0.129c1.545,0,2.776-0.086,3.693-0.258
					c0.918-0.174,1.596-0.41,2.034-0.711c0.438-0.305,0.668-0.682,0.688-1.135c0.021-0.453-0.094-0.961-0.345-1.521l-12.58-24.797
					L47.47,11.566c0.292-0.561,0.417-1.059,0.375-1.488c-0.041-0.434-0.282-0.811-0.72-1.133c-0.438-0.326-1.116-0.561-2.034-0.713
					c-0.917-0.152-2.169-0.227-3.755-0.227c-1.209,0-2.2,0.043-2.972,0.129s-1.408,0.205-1.909,0.357
					c-0.502,0.15-0.886,0.365-1.159,0.646c-0.271,0.281-0.532,0.615-0.782,1.004L21.183,32.545z"/>
			</g>
		</g>
	</g>
</g>
</svg>
