<?xml version="1.0" encoding="utf-8"?>
<!-- Generator: Adobe Illustrator 16.0.4, SVG Export Plug-In . SVG Version: 6.00 Build 0)  -->
<!DOCTYPE svg PUBLIC "-//W3C//DTD SVG 1.1//EN" "http://www.w3.org/Graphics/SVG/1.1/DTD/svg11.dtd">
<svg version="1.1" id="Ebene_1" xmlns="http://www.w3.org/2000/svg" xmlns:xlink="http://www.w3.org/1999/xlink" x="0px" y="0px"
	 width="183px" height="183.701px" viewBox="0 0 183 183.701" enable-background="new 0 0 183 183.701" xml:space="preserve">
<g>
	<path fill="#FFFFFF" d="M91.148,176.811c46.922,0,84.959-38.037,84.959-84.959c0-46.923-38.037-84.96-84.959-84.96
		S6.189,44.928,6.189,91.852C6.189,138.774,44.226,176.811,91.148,176.811"/>
	<circle fill="none" stroke="#008DCA" stroke-width="9.7823" cx="91.148" cy="91.851" r="84.96"/>
	<path fill="#008DCA" d="M29.22,91.029v-37.18h27.646v9.006h-4.414v-4.592H33.635V70.75c14.177,0.016,17.79,13.445,19.163,13.445
		h103.591v6.834H29.22z M43.655,133.663l-2.035-13.67c-9.585-6.846-12.399-13.926-12.399-24.352h127.169
		c-0.509,9.219-3.941,17.623-10.683,24.096l-2.733,13.926h-2.988l-1.718-8.457c-19.245,9.621-71.019,8.201-89.654-0.762
		l-1.779,9.219H43.655z"/>
</g>
</svg>
