<?xml version="1.0" encoding="utf-8"?>
<!-- Generator: Adobe Illustrator 16.0.4, SVG Export Plug-In . SVG Version: 6.00 Build 0)  -->
<!DOCTYPE svg PUBLIC "-//W3C//DTD SVG 1.1//EN" "http://www.w3.org/Graphics/SVG/1.1/DTD/svg11.dtd">
<svg version="1.1" id="Ebene_1" xmlns="http://www.w3.org/2000/svg" xmlns:xlink="http://www.w3.org/1999/xlink" x="0px" y="0px"
	 width="183px" height="183.701px" viewBox="0 0 183 183.701" enable-background="new 0 0 183 183.701" xml:space="preserve">
<g>
	<g>
		<defs>
			<rect id="SVGID_1_" x="2.012" y="2.36" width="178.982" height="178.982"/>
		</defs>
		<clipPath id="SVGID_2_">
			<use xlink:href="#SVGID_1_"  overflow="visible"/>
		</clipPath>
		<path clip-path="url(#SVGID_2_)" fill="#FFFFFF" d="M91.502,176.471c46.734,0,84.619-37.885,84.619-84.619
			c0-46.734-37.885-84.62-84.619-84.62S6.884,45.118,6.884,91.852C6.884,138.586,44.768,176.471,91.502,176.471"/>
		<circle clip-path="url(#SVGID_2_)" fill="none" stroke="#008DCA" stroke-width="9.7431" cx="91.502" cy="91.851" r="84.619"/>
		<path clip-path="url(#SVGID_2_)" fill="#008DCA" d="M115.019,96.393c10.179,2.914,16.324-5.367,12.736-13.437l-6.282,5.793
			c-4.023,3.755-10.032-1.787-6.008-5.496l6.305-5.814c-7.609-4.149-18.548,2.613-14.849,11.943
			c-8.914,8.22-17.831,16.439-26.746,24.66c-10.117-3.41-17.448,6.678-12.948,13.691l6.305-5.812
			c4.021-3.709,10.033,1.828,5.958,5.539l-6.28,5.793c8.751,3.311,17.734-2.355,14.571-11.742
			C96.858,113.137,105.938,104.762,115.019,96.393 M140.873,143.363h-86.61c-7.537,0-13.702-5.686-13.702-12.635V54.87
			c0-6.948,5.428-12.635,13.702-12.635h81.13v19.417h-4.021V45.583c-26.856-0.009-48.28-0.107-75.152-0.107
			c-15.931,0-15.635,21.209,0.227,21.209c28.158,0,56.277-0.191,84.427-0.191V143.363z"/>
	</g>
</g>
</svg>
