<?xml version="1.0" encoding="utf-8"?>
<!-- Generator: Adobe Illustrator 16.0.4, SVG Export Plug-In . SVG Version: 6.00 Build 0)  -->
<!DOCTYPE svg PUBLIC "-//W3C//DTD SVG 1.1//EN" "http://www.w3.org/Graphics/SVG/1.1/DTD/svg11.dtd">
<svg version="1.1" id="Ebene_1" xmlns="http://www.w3.org/2000/svg" xmlns:xlink="http://www.w3.org/1999/xlink" x="0px" y="0px"
	 width="72px" height="72.276px" viewBox="0 0 72 72.276" enable-background="new 0 0 72 72.276" xml:space="preserve">
<g>
	<path fill="#FFFFFF" d="M64.264,37.649c0.002-6.166-0.986-10.57-3.084-14.688c-3.621-7.104-9.193-12.055-16.711-14.737
		c-5.135-1.832-10.412-2.171-15.74-1.019c-8.135,1.759-14.521,6.157-18.926,13.203c-5.002,8-5.916,16.59-2.84,25.502
		c2.361,6.84,6.803,12.074,13.055,15.705c6.26,3.635,13.002,4.744,20.123,3.475c4.443-0.791,8.465-2.59,12.104-5.248
		c0.262-0.189,0.451-0.205,0.74-0.045c3.67,2.035,7.346,4.068,11.035,6.072c0.479,0.26,1.029,0.443,1.566,0.521
		c0.777,0.115,1.195-0.365,1.104-1.148c-0.018-0.154-0.082-0.305-0.133-0.455c-1.756-5.049-3.516-10.098-5.258-15.154
		c-0.072-0.207-0.055-0.502,0.039-0.701C63.264,44.872,64.264,40.603,64.264,37.649 M1.178,36.126
		c0.029-6.998,1.98-13.406,5.982-19.147c4.23-6.072,9.869-10.318,16.875-12.725c4.111-1.412,8.352-1.954,12.684-1.705
		C51.547,3.401,64.15,14.03,67.475,28.511c1.619,7.057,1.012,13.943-1.766,20.637c-0.084,0.203-0.09,0.492-0.016,0.703
		c1.613,4.68,3.242,9.354,4.869,14.029c0.967,2.783-0.854,5.957-3.738,6.504c-1.713,0.324-3.289-0.127-4.775-0.936
		c-2.955-1.607-5.898-3.236-8.842-4.869c-0.26-0.145-0.445-0.164-0.713,0.002c-3.814,2.402-7.959,3.949-12.406,4.664
		c-3.535,0.568-7.076,0.574-10.611,0.008C16.732,67.212,6.354,58.058,2.617,45.835c-0.865-2.838-1.367-5.742-1.406-8.717
		c-0.002-0.172-0.025-0.344-0.031-0.516C1.174,36.444,1.178,36.286,1.178,36.126"/>
	<path fill="#FFFFFF" d="M26.834,17.314c0.373,0.771,0.719,1.482,1.064,2.196c1.287,2.656,2.574,5.314,3.863,7.971
		c0.074,0.152,0.172,0.283-0.023,0.447c-1.488,1.24-1.951,2.918-1.822,4.746c0.266,3.764,1.652,7.098,4.152,9.934
		c1.109,1.258,2.473,2.174,4.184,2.4c0.543,0.074,1.107-0.014,1.66-0.002c0.141,0.002,0.357,0.062,0.408,0.162
		c1.645,3.365,3.273,6.738,4.959,10.221c-0.852,0.303-1.662,0.66-2.51,0.877c-1.963,0.496-3.775-0.012-5.486-0.99
		c-1.914-1.094-3.459-2.617-4.859-4.293c-2.582-3.096-4.559-6.566-6.291-10.186c-1.514-3.156-2.828-6.393-3.703-9.793
		c-0.506-1.969-0.855-3.963-0.824-6.006c0.021-1.43,0.238-2.824,0.869-4.127c0.59-1.219,1.486-2.151,2.697-2.766
		C25.701,17.837,26.244,17.594,26.834,17.314"/>
	<path fill="#FFFFFF" d="M37.914,25.103c-0.035,0.561-0.217,0.91-0.631,1.105c-1.125,0.529-2.248,1.064-3.381,1.58
		c-0.645,0.293-1.277,0.014-1.627-0.705c-0.912-1.879-1.816-3.764-2.725-5.648c-0.645-1.334-1.287-2.67-1.928-4.006
		c-0.402-0.841-0.195-1.414,0.646-1.809c0.994-0.466,1.988-0.933,2.984-1.396c0.826-0.385,1.416-0.172,1.82,0.66
		c0.699,1.44,1.395,2.882,2.09,4.324c0.852,1.762,1.705,3.525,2.549,5.293C37.818,24.724,37.869,24.97,37.914,25.103"/>
	<path fill="#FFFFFF" d="M51.248,52.702c-0.045,0.479-0.242,0.832-0.668,1.033c-1.125,0.529-2.246,1.064-3.379,1.578
		c-0.629,0.283-1.26,0.006-1.6-0.689c-0.896-1.846-1.783-3.693-2.676-5.541c-0.65-1.346-1.303-2.691-1.949-4.039
		c-0.463-0.971-0.256-1.512,0.727-1.967c0.947-0.439,1.893-0.885,2.84-1.328c0.826-0.387,1.441-0.186,1.834,0.629
		c1.557,3.217,3.107,6.434,4.654,9.654C51.131,52.243,51.178,52.478,51.248,52.702"/>
</g>
</svg>
