<?xml version="1.0" encoding="utf-8"?>
<!-- Generator: Adobe Illustrator 16.0.4, SVG Export Plug-In . SVG Version: 6.00 Build 0)  -->
<!DOCTYPE svg PUBLIC "-//W3C//DTD SVG 1.1//EN" "http://www.w3.org/Graphics/SVG/1.1/DTD/svg11.dtd">
<svg version="1.1" id="Ebene_1" xmlns="http://www.w3.org/2000/svg" xmlns:xlink="http://www.w3.org/1999/xlink" x="0px" y="0px"
	 width="183px" height="183.701px" viewBox="0 0 183 183.701" enable-background="new 0 0 183 183.701" xml:space="preserve">
<g>
	<g>
		<path fill="#FFFFFF" d="M91.5,177.97c47.562,0,86.119-38.557,86.119-86.118c0-47.563-38.557-86.12-86.119-86.12
			S5.381,44.288,5.381,91.852C5.381,139.413,43.938,177.97,91.5,177.97"/>
		<circle fill="none" stroke="#008DCA" stroke-width="9.9158" cx="91.5" cy="91.851" r="86.119"/>
		<path fill="#008DCA" d="M60.204,132.572c0,3.646-2.955,6.602-6.601,6.602c-3.645,0-6.599-2.955-6.599-6.602V53.556
			c0-3.645,2.954-6.6,6.599-6.6c3.646,0,6.601,2.955,6.601,6.6V132.572z"/>
		<path fill="#008DCA" d="M77.019,132.572c0,3.646-2.955,6.602-6.601,6.602c-3.644,0-6.599-2.955-6.599-6.602V53.556
			c0-3.645,2.955-6.6,6.599-6.6c3.646,0,6.601,2.955,6.601,6.6V132.572z"/>
		<path fill="#008DCA" d="M94.197,132.572c0,3.646-2.955,6.602-6.601,6.602c-3.644,0-6.599-2.955-6.599-6.602V53.556
			c0-3.645,2.955-6.6,6.599-6.6c3.646,0,6.601,2.955,6.601,6.6V132.572z"/>
		<path fill="#008DCA" d="M111.194,132.572c0,3.646-2.955,6.602-6.599,6.602c-3.646,0-6.6-2.955-6.6-6.602V53.556
			c0-3.645,2.954-6.6,6.6-6.6c3.645,0,6.599,2.955,6.599,6.6V132.572z"/>
		<path fill="#008DCA" d="M128.191,132.572c0,3.646-2.955,6.602-6.601,6.602c-3.644,0-6.599-2.955-6.599-6.602V53.556
			c0-3.645,2.956-6.6,6.599-6.6c3.646,0,6.601,2.955,6.601,6.6V132.572z"/>
		<path fill="#008DCA" d="M140.304,59.797c0,2.494-2.024,4.519-4.521,4.519c-2.496,0-4.52-2.024-4.52-4.519
			c0-2.497,2.024-4.521,4.52-4.521C138.28,55.276,140.304,57.3,140.304,59.797"/>
	</g>
	<rect x="50.438" y="57.986" fill="#008DCA" width="82.091" height="3.978"/>
	<rect x="49.714" y="125.794" fill="#008DCA" width="82.815" height="3.977"/>
</g>
</svg>
