<?xml version="1.0" encoding="utf-8"?>
<!-- Generator: Adobe Illustrator 16.0.4, SVG Export Plug-In . SVG Version: 6.00 Build 0)  -->
<!DOCTYPE svg PUBLIC "-//W3C//DTD SVG 1.1//EN" "http://www.w3.org/Graphics/SVG/1.1/DTD/svg11.dtd">
<svg version="1.1" id="Ebene_1" xmlns="http://www.w3.org/2000/svg" xmlns:xlink="http://www.w3.org/1999/xlink" x="0px" y="0px"
	 width="183px" height="183.701px" viewBox="0 0 183 183.701" enable-background="new 0 0 183 183.701" xml:space="preserve">
<g>
	<path fill="#FFFFFF" d="M91.5,177.016c47.035,0,85.164-38.13,85.164-85.164c0-47.037-38.129-85.166-85.164-85.166
		c-47.035,0-85.164,38.129-85.164,85.166C6.336,138.886,44.465,177.016,91.5,177.016"/>
	<circle fill="none" stroke="#008DCA" stroke-width="9.9197" cx="91.5" cy="91.851" r="86.153"/>
	<path fill="#008DCA" d="M71.47,97.767l-22.42,22.421c-2.505,2.503-2.729,6.374-0.229,8.876l6.555,6.552
		c2.502,2.503,6.825,2.729,9.328,0.228l22.422-22.422l-2.047-2.047l5.886-5.886l17.315,17.315c-0.416,3.91,0.875,7.962,3.871,10.959
		c5.262,5.264,13.794,5.264,19.056,0c5.263-5.262,5.263-13.794,0-19.056c-3.03-3.029-7.146-4.312-11.093-3.855L99.92,90.661
		l20.753-20.753l4.936-0.122l9.755-9.753l-10.478-10.477l-9.752,9.754l-0.255,4.802L94.125,84.866L80.379,71.121
		C85.98,55.799,69.411,44.693,57.89,51.508l9.552,9.548c6.092,6.092-3.009,15.196-9.104,9.025l-9.512-9.511
		c-5.434,13.252,3.871,26.856,19.288,22.065L79.54,94.06l-5.888,5.887L71.47,97.767z M116.076,130.128
		c-3.172-3.176-3.172-8.32,0-11.495c3.175-3.172,8.319-3.172,11.495,0c3.175,3.175,3.175,8.319,0,11.495
		C124.395,133.302,119.251,133.302,116.076,130.128"/>
</g>
</svg>
